<svg width="32" height="32" viewBox="0 0 32 32" fill="none" xmlns="http://www.w3.org/2000/svg">
<path d="M23.4676 3.99448H5.49244C5.09516 3.99448 4.71416 4.1523 4.43324 4.43322C4.15232 4.71413 3.99451 5.09514 3.99451 5.49241L3.99451 26.4634C3.99451 26.8607 4.15232 27.2417 4.43324 27.5226C4.71416 27.8035 5.09516 27.9614 5.49244 27.9614H23.4676C23.8649 27.9614 24.2459 27.8035 24.5268 27.5226C24.8077 27.2417 24.9655 26.8607 24.9655 26.4634V5.49241C24.9655 5.09514 24.8077 4.71413 24.5268 4.43322C24.2459 4.1523 23.8649 3.99448 23.4676 3.99448ZM5.49244 5.49241H8.4883V26.4634H5.49244V5.49241ZM23.4676 26.4634H9.98623V5.49241H23.4676V26.4634ZM14.3767 12.0339C14.3767 12.3317 14.4353 12.6266 14.5493 12.9017C14.6633 13.1769 14.8303 13.4269 15.0409 13.6375C15.2515 13.8481 15.5015 14.0151 15.7767 14.1291C16.0518 14.2431 16.3467 14.3017 16.6445 14.3017C16.9423 14.3017 17.2373 14.2431 17.5124 14.1291C17.7876 14.0151 18.0376 13.8481 18.2482 13.6375C18.4587 13.4269 18.6258 13.1769 18.7398 12.9017C18.8537 12.6266 18.9124 12.3317 18.9124 12.0339C18.9124 11.7361 18.8537 11.4412 18.7398 11.166C18.6258 10.8909 18.4587 10.6408 18.2481 10.4303C18.0376 10.2197 17.7876 10.0526 17.5124 9.93864C17.2373 9.82467 16.9423 9.76601 16.6445 9.76601C16.3467 9.76601 16.0518 9.82467 15.7767 9.93864C15.5015 10.0526 15.2515 10.2197 15.0409 10.4303C14.6156 10.8556 14.3767 11.4324 14.3767 12.0339ZM16.691 15.208C14.6433 15.208 12.9821 17.4354 12.9821 20.1826C12.9821 22.9298 20.4013 22.9298 20.4013 20.1826C20.4013 17.4354 18.7401 15.208 16.691 15.208ZM26.4635 5.49241H27.9614V9.9862H26.4635V5.49241ZM26.4635 11.4841H27.9614V15.9779H26.4635V11.4841ZM26.4635 17.4759H27.9614V21.9696H26.4635V17.4759Z" fill="#407BFF"/>
</svg>
