<svg width="14" height="15" viewBox="0 0 14 15" fill="none" xmlns="http://www.w3.org/2000/svg">
<path d="M13.16 2.72727H10.64V1.90909C10.64 1.40277 10.4335 0.917184 10.0659 0.55916C9.69836 0.201136 9.19982 0 8.68 0H5.32C4.80018 0 4.30164 0.201136 3.93407 0.55916C3.5665 0.917184 3.36 1.40277 3.36 1.90909V2.72727H0.84C0.617218 2.72727 0.403561 2.81347 0.24603 2.96691C0.0884998 3.12035 0 3.32846 0 3.54545C0 3.76245 0.0884998 3.97056 0.24603 4.124C0.403561 4.27744 0.617218 4.36364 0.84 4.36364H1.12V13.6364C1.12 13.998 1.2675 14.3449 1.53005 14.6006C1.7926 14.8563 2.1487 15 2.52 15H11.48C11.8513 15 12.2074 14.8563 12.4699 14.6006C12.7325 14.3449 12.88 13.998 12.88 13.6364V4.36364H13.16C13.3828 4.36364 13.5964 4.27744 13.754 4.124C13.9115 3.97056 14 3.76245 14 3.54545C14 3.32846 13.9115 3.12035 13.754 2.96691C13.5964 2.81347 13.3828 2.72727 13.16 2.72727ZM5.04 1.90909C5.04 1.83676 5.0695 1.76739 5.12201 1.71624C5.17452 1.6651 5.24574 1.63636 5.32 1.63636H8.68C8.75426 1.63636 8.82548 1.6651 8.87799 1.71624C8.9305 1.76739 8.96 1.83676 8.96 1.90909V2.72727H5.04V1.90909ZM11.2 13.3636H2.8V4.36364H11.2V13.3636ZM6.16 6.54545V10.9091C6.16 11.1261 6.0715 11.3342 5.91397 11.4876C5.75644 11.6411 5.54278 11.7273 5.32 11.7273C5.09722 11.7273 4.88356 11.6411 4.72603 11.4876C4.5685 11.3342 4.48 11.1261 4.48 10.9091V6.54545C4.48 6.32846 4.5685 6.12035 4.72603 5.96691C4.88356 5.81347 5.09722 5.72727 5.32 5.72727C5.54278 5.72727 5.75644 5.81347 5.91397 5.96691C6.0715 6.12035 6.16 6.32846 6.16 6.54545ZM9.52 6.54545V10.9091C9.52 11.1261 9.4315 11.3342 9.27397 11.4876C9.11644 11.6411 8.90278 11.7273 8.68 11.7273C8.45722 11.7273 8.24356 11.6411 8.08603 11.4876C7.9285 11.3342 7.84 11.1261 7.84 10.9091V6.54545C7.84 6.32846 7.9285 6.12035 8.08603 5.96691C8.24356 5.81347 8.45722 5.72727 8.68 5.72727C8.90278 5.72727 9.11644 5.81347 9.27397 5.96691C9.4315 6.12035 9.52 6.32846 9.52 6.54545Z" fill="white"/>
</svg>
