<svg width="19" height="19" viewBox="0 0 19 19" fill="none" xmlns="http://www.w3.org/2000/svg">
<path d="M12.6666 1.58334H6.33331C3.71369 1.58334 1.58331 3.71371 1.58331 6.33334V16.625C1.58331 16.835 1.66672 17.0363 1.81519 17.1848C1.96365 17.3333 2.16502 17.4167 2.37498 17.4167H12.6666C15.2863 17.4167 17.4166 15.2863 17.4166 12.6667V6.33334C17.4166 3.71371 15.2863 1.58334 12.6666 1.58334ZM15.8333 12.6667C15.8333 14.4131 14.4131 15.8333 12.6666 15.8333H3.16665V6.33334C3.16665 4.58692 4.5869 3.16667 6.33331 3.16667H12.6666C14.4131 3.16667 15.8333 4.58692 15.8333 6.33334V12.6667Z" fill="white"/>
<path d="M5.54169 7.125H13.4584V8.70833H5.54169V7.125ZM5.54169 10.2917H11.0834V11.875H5.54169V10.2917Z" fill="white"/>
</svg>
