<svg width="17" height="17" viewBox="0 0 17 17" fill="none" xmlns="http://www.w3.org/2000/svg">
<path fill-rule="evenodd" clip-rule="evenodd" d="M3.03669 10.9266C1.36487 10.9266 0 12.2914 0 13.9632C0 15.6351 1.36487 16.9999 3.03669 16.9999H11.5394C13.2112 16.9999 14.5761 15.6351 14.5761 13.9632C14.5761 12.2914 13.2112 10.9266 11.5394 10.9266H3.03669ZM3.03669 12.1412H11.5394C12.5593 12.1412 13.3614 12.9433 13.3614 13.9632C13.3614 14.9831 12.5593 15.7853 11.5394 15.7853H3.03669C2.01679 15.7853 1.21468 14.9831 1.21468 13.9632C1.21468 12.9433 2.01679 12.1412 3.03669 12.1412ZM12.7541 5.46051C12.593 5.46051 12.4385 5.52449 12.3247 5.63838C12.2108 5.75228 12.1468 5.90677 12.1468 6.06785C12.1468 6.22892 12.2108 6.38339 12.3247 6.49729C12.4385 6.61119 12.593 6.67518 12.7541 6.67518C12.9152 6.67518 13.0697 6.61119 13.1836 6.49729C13.2975 6.38339 13.3614 6.22892 13.3614 6.06785C13.3614 5.90677 13.2975 5.75228 13.1836 5.63838C13.0697 5.52449 12.9152 5.46051 12.7541 5.46051ZM12.7541 1.81648C12.593 1.81648 12.4385 1.88046 12.3247 1.99435C12.2108 2.10825 12.1468 2.26274 12.1468 2.42382V4.24583C12.1468 4.40691 12.2108 4.56138 12.3247 4.67528C12.4385 4.78917 12.593 4.85317 12.7541 4.85317C12.9152 4.85317 13.0697 4.78917 13.1836 4.67528C13.2975 4.56138 13.3614 4.40691 13.3614 4.24583V2.42382C13.3614 2.26274 13.2975 2.10825 13.1836 1.99435C13.0697 1.88046 12.9152 1.81648 12.7541 1.81648Z" fill="black"/>
<path fill-rule="evenodd" clip-rule="evenodd" d="M12.7541 -0.0055542C11.1566 -0.0055542 9.76034 0.884448 9.03415 2.19367C8.48742 1.94746 7.89299 1.81638 7.28805 1.81646C4.94728 1.81646 3.03668 3.72706 3.03668 6.06783C3.03668 8.4086 4.94728 10.3192 7.28805 10.3192C7.28846 10.3192 7.28886 10.3192 7.28926 10.3192C8.85097 10.3149 10.267 9.45437 11.0033 8.1176C11.5379 8.36092 12.1304 8.49718 12.7541 8.49718C15.0949 8.49718 17.0055 6.58659 17.0055 4.24581C17.0055 1.90505 15.0949 -0.0055542 12.7541 -0.0055542ZM12.7541 1.20912C14.4384 1.20912 15.7908 2.56151 15.7908 4.24581C15.7908 5.93013 14.4384 7.28251 12.7541 7.28251C12.1563 7.28251 11.6011 7.11137 11.1325 6.81633C11.088 6.77547 11.0376 6.74148 10.9831 6.7155C10.2157 6.16583 9.7174 5.26743 9.7174 4.24581C9.7174 3.92775 9.7666 3.62113 9.85619 3.33362C9.88717 3.27654 9.90879 3.21487 9.92024 3.15094C10.3572 2.01215 11.4564 1.20912 12.7541 1.20912ZM7.28805 3.03114C7.74549 3.03108 8.19469 3.13466 8.60356 3.33125C8.53846 3.626 8.50273 3.93204 8.50273 4.24581C8.50273 5.52639 9.07594 6.67738 9.97718 7.45806C9.46401 8.45652 8.43517 9.10093 7.28805 9.10452C5.60374 9.10452 4.25136 7.75214 4.25136 6.06783C4.25136 4.38352 5.60374 3.03114 7.28805 3.03114Z" fill="black"/>
</svg>
