<svg width="15" height="15" viewBox="0 0 15 15" fill="none" xmlns="http://www.w3.org/2000/svg">
<path d="M13.4375 0.375H1.5625C1.24756 0.375 0.94551 0.500111 0.722811 0.722811C0.500111 0.94551 0.375 1.24756 0.375 1.5625V13.4375C0.375 13.7524 0.500111 14.0545 0.722811 14.2772C0.94551 14.4999 1.24756 14.625 1.5625 14.625H13.4375C13.7524 14.625 14.0545 14.4999 14.2772 14.2772C14.4999 14.0545 14.625 13.7524 14.625 13.4375V1.5625C14.625 1.24756 14.4999 0.94551 14.2772 0.722811C14.0545 0.500111 13.7524 0.375 13.4375 0.375ZM13.4375 13.4375H1.5625V9.875L4.53125 6.90625L7.85031 10.2253C8.07281 10.4465 8.37378 10.5706 8.6875 10.5706C9.00122 10.5706 9.30219 10.4465 9.52469 10.2253L10.4688 9.28125L13.4375 12.25V13.4375ZM13.4375 10.5697L11.3059 8.43812C11.0834 8.21695 10.7825 8.09281 10.4688 8.09281C10.155 8.09281 9.85406 8.21695 9.63156 8.43812L8.6875 9.38219L5.36844 6.06313C5.14594 5.84195 4.84497 5.71781 4.53125 5.71781C4.21753 5.71781 3.91656 5.84195 3.69406 6.06313L1.5625 8.19469V1.5625H13.4375V10.5697Z" fill="#84A4EB"/>
</svg>
