<svg width="17" height="16" viewBox="0 0 17 16" fill="none" xmlns="http://www.w3.org/2000/svg">
<path d="M8.10526 12.2778L5.73684 11.1111M5.73684 11.1111L1 13.4444V3.33333L5.73684 1M5.73684 11.1111V1M5.73684 1L10.4737 3.33333M10.4737 3.33333L15.2105 1V6.83333M10.4737 3.33333V7.61111M13.6316 11.8889V11.8967M15.3061 13.5386C15.6374 13.2123 15.863 12.7965 15.9544 12.3439C16.0459 11.8912 15.999 11.422 15.8198 10.9956C15.6405 10.5692 15.337 10.2048 14.9475 9.94834C14.558 9.69192 14.1 9.55506 13.6316 9.55506C13.1631 9.55506 12.7052 9.69192 12.3157 9.94834C11.9262 10.2048 11.6226 10.5692 11.4434 10.9956C11.2641 11.422 11.2173 11.8912 11.3087 12.3439C11.4002 12.7965 11.6258 13.2123 11.9571 13.5386C12.2871 13.8644 12.8453 14.3513 13.6316 15C14.4613 14.3078 15.0203 13.8209 15.3061 13.5386Z" stroke="#407BFF" stroke-linecap="round" stroke-linejoin="round"/>
</svg>
