<svg width="18" height="18" viewBox="0 0 18 18" fill="none" xmlns="http://www.w3.org/2000/svg">
<g clip-path="url(#clip0_16_236)">
<path fill-rule="evenodd" clip-rule="evenodd" d="M8.60154 4.42157V6.00532C8.60154 6.32096 8.85784 6.57721 9.17353 6.57721C9.48923 6.57721 9.74553 6.32096 9.74553 6.00532V4.42157C9.74553 4.10593 9.48923 3.84968 9.17353 3.84968C8.85784 3.84968 8.60154 4.10593 8.60154 4.42157Z" fill="#407BFF"/>
<path fill-rule="evenodd" clip-rule="evenodd" d="M12.1279 5.40929L11.008 6.52915C10.7848 6.75234 10.7848 7.11477 11.0081 7.33799C11.2313 7.56122 11.5937 7.56126 11.8169 7.33807L12.9368 6.21821C13.16 5.99503 13.1599 5.6326 12.9367 5.40937C12.7135 5.18615 12.351 5.18611 12.1279 5.40929Z" fill="#407BFF"/>
<path fill-rule="evenodd" clip-rule="evenodd" d="M13.6602 8.60153H12.3404C12.0247 8.60153 11.7685 8.85783 11.7685 9.17352C11.7685 9.48922 12.0247 9.74552 12.3404 9.74552H13.6602C13.9759 9.74552 14.232 9.48922 14.232 9.17352C14.232 8.85783 13.9759 8.60153 13.6602 8.60153Z" fill="#407BFF"/>
<path fill-rule="evenodd" clip-rule="evenodd" d="M12.75 11.9416L11.8168 11.0084C11.5935 10.7852 11.2312 10.7852 11.0079 11.0085C10.7847 11.2317 10.7846 11.5941 11.0078 11.8173L11.9411 12.7505C12.1643 12.9738 12.5267 12.9737 12.7499 12.7504C12.9731 12.5272 12.9732 12.1648 12.75 11.9416Z" fill="#407BFF"/>
<path fill-rule="evenodd" clip-rule="evenodd" d="M9.7443 13.3964V12.3406C9.7443 12.0249 9.488 11.7686 9.1723 11.7686C8.85661 11.7686 8.60031 12.0249 8.60031 12.3406V13.3964C8.60031 13.7121 8.85661 13.9683 9.1723 13.9683C9.488 13.9683 9.7443 13.7121 9.7443 13.3964Z" fill="#407BFF"/>
<path fill-rule="evenodd" clip-rule="evenodd" d="M6.58971 12.5623L7.3363 11.8157C7.55953 11.5924 7.5595 11.23 7.33627 11.0068C7.11304 10.7835 6.75061 10.7835 6.52737 11.0067L5.78078 11.7533C5.55755 11.9766 5.55758 12.339 5.78081 12.5622C6.00404 12.7854 6.36647 12.7855 6.58971 12.5623Z" fill="#407BFF"/>
<path fill-rule="evenodd" clip-rule="evenodd" d="M5.21352 9.7443H6.00538C6.32102 9.7443 6.57726 9.488 6.57726 9.17231C6.57726 8.85662 6.32102 8.60031 6.00538 8.60031H5.21352C4.89789 8.60031 4.64164 8.85662 4.64164 9.17231C4.64164 9.488 4.89789 9.7443 5.21352 9.7443Z" fill="#407BFF"/>
<path fill-rule="evenodd" clip-rule="evenodd" d="M5.96831 6.77681L6.52824 7.33674C6.75143 7.55993 7.11385 7.55989 7.33708 7.33666C7.56031 7.11343 7.56035 6.75101 7.33716 6.52782L6.77723 5.96789C6.55404 5.7447 6.19162 5.74474 5.96839 5.96797C5.74516 6.1912 5.74512 6.55362 5.96831 6.77681Z" fill="#407BFF"/>
<path fill-rule="evenodd" clip-rule="evenodd" d="M13.6213 13.6212C11.1663 16.0762 7.17973 16.0762 4.72471 13.6212C2.26969 11.1662 2.26969 7.17963 4.72471 4.72461C7.17973 2.26959 11.1663 2.26958 13.6213 4.7246C15.5566 6.65989 15.9667 9.5468 14.8508 11.8851C14.7146 12.1702 14.8357 12.5116 15.1203 12.6477C15.4052 12.7836 15.7471 12.6625 15.8829 12.3777C17.2014 9.6145 16.7174 6.20276 14.4303 3.91565C11.5288 1.01417 6.81722 1.01417 3.91575 3.91564C1.01428 6.81712 1.01428 11.5287 3.91575 14.4302C6.81723 17.3316 11.5288 17.3316 14.4303 14.4302C14.6535 14.2069 14.6535 13.8444 14.4303 13.6212C14.207 13.398 13.8445 13.398 13.6213 13.6212Z" fill="#407BFF"/>
</g>
<defs>
<clipPath id="clip0_16_236">
<rect width="18" height="18" fill="white"/>
</clipPath>
</defs>
</svg>
