<svg width="31" height="31" viewBox="0 0 31 31" fill="none" xmlns="http://www.w3.org/2000/svg">
    <path fill-rule="evenodd" clip-rule="evenodd"
        d="M25.7663 0C23.6335 0 21.8299 1.46785 21.3088 3.43852L20.735 3.17192C20.6326 3.12433 20.5211 3.09968 20.4082 3.09968C20.2954 3.09968 20.1838 3.12433 20.0815 3.17192L10.5915 7.58043L1.10143 3.17223C0.983345 3.11739 0.853347 3.09318 0.723438 3.10185C0.593529 3.11051 0.467895 3.15176 0.358137 3.22179C0.248378 3.29182 0.158031 3.38838 0.0954379 3.50254C0.0328446 3.61671 2.18651e-05 3.7448 2.09019e-08 3.875V25.664C-3.429e-05 25.8117 0.0421737 25.9564 0.121649 26.081C0.201125 26.2056 0.314555 26.3048 0.44857 26.3671L10.265 30.9268C10.3674 30.9744 10.4789 30.9991 10.5918 30.9991C10.7046 30.9991 10.8162 30.9744 10.9185 30.9268L20.4085 26.5186L29.8986 30.9268C30.4122 31.1652 31 30.7904 31 30.2244V8.43541C31 8.28765 30.9578 8.14296 30.8784 8.01839C30.7989 7.89382 30.6854 7.79457 30.5514 7.73233L29.5501 7.26671L29.8635 6.73289C29.9348 6.60362 29.9916 6.46598 30.0402 6.32524C30.2647 5.77811 30.3801 5.1924 30.38 4.60102C30.38 2.07235 28.3024 0 25.7663 0ZM25.7663 2.15543C27.1318 2.15543 28.2178 3.23919 28.2178 4.60102C28.2178 5.96254 27.1318 7.04537 25.7663 7.04537C24.4007 7.04537 23.3148 5.96254 23.3148 4.60102C23.3148 3.23919 24.4007 2.15543 25.7663 2.15543ZM20.7548 4.89025L21.1817 5.08896C21.265 5.86358 21.5451 6.604 21.9954 7.23974L25.2033 12.7856C25.6528 13.3728 25.9516 13.2612 26.3252 12.7546L28.7609 8.60901L29.45 8.92955V29.0098L20.8698 25.0241L20.7998 12.7246C20.9262 12.7519 21.0524 12.7782 21.1792 12.8083L21.4644 11.6021C21.2412 11.5493 21.0172 11.5004 20.7923 11.4554L20.7548 4.89025ZM19.8254 4.99999L19.8611 11.3042C19.5409 11.2602 19.2189 11.2311 18.8961 11.217L18.8502 12.4558C19.1875 12.4682 19.5275 12.5048 19.8685 12.5544L19.9398 25.0269L11.0503 29.1571L10.9359 9.12981L19.8254 4.99999ZM1.55 5.08958L10.0053 9.01728L10.1203 29.1509L1.55 25.1692V5.08958ZM17.5283 11.3017C17.1015 11.3782 16.6647 11.515 16.2579 11.7515C15.7714 12.0332 15.3713 12.4427 15.101 12.9357L16.1866 13.5346C16.3484 13.2401 16.5869 12.9949 16.8767 12.825L16.8786 12.8238L16.8804 12.8225C17.1306 12.6768 17.4285 12.5789 17.7475 12.5218L17.5283 11.3017ZM22.6948 11.9313L22.3436 13.1198C23.1195 13.3492 23.888 13.6127 24.6521 13.8979L25.0858 12.736C24.3009 12.4434 23.5048 12.1706 22.6948 11.9313ZM14.6342 14.286L14.6249 14.335L14.6239 14.3394C14.4692 15.217 14.4857 16.0806 14.5204 16.9015L15.7592 16.8488C15.7254 16.0524 15.7182 15.2818 15.845 14.5585L15.8525 14.5198L14.6342 14.286ZM15.8329 18.0711L14.596 18.1548C14.6518 18.9822 14.7114 19.7932 14.7092 20.5883L15.9492 20.5914C15.9517 19.7327 15.8887 18.8933 15.8329 18.0711ZM14.6475 21.757C14.6134 22.0525 14.5626 22.3398 14.4882 22.6157L14.4875 22.6173L14.4869 22.6198C14.3784 23.0336 14.1958 23.4168 13.941 23.7169L14.8856 24.5198C15.2849 24.0501 15.5381 23.4974 15.6854 22.9381L15.686 22.9363C15.779 22.5903 15.8394 22.2419 15.8791 21.8978L14.6475 21.757ZM4.17942 22.9654L3.62266 24.0734C4.39146 24.4599 5.18661 24.7795 5.98734 25.0561L6.39189 23.8839C5.63084 23.6214 4.88777 23.3213 4.17942 22.9654ZM7.53858 24.2404L7.20874 25.4358C8.029 25.6624 8.8722 25.8425 9.734 25.9396L9.87226 24.7073C9.09075 24.6196 8.31141 24.454 7.53858 24.2404ZM13.1623 24.3279C12.5448 24.6441 11.7992 24.7609 11.0326 24.7702L11.0481 26.0102C11.9266 25.9997 12.8659 25.8726 13.7271 25.4315L13.1623 24.3279Z"
        fill="#84A4EB" />
</svg>
