<svg width="33" height="33" viewBox="0 0 33 33" fill="none" xmlns="http://www.w3.org/2000/svg">
<path d="M15.9706 10.3978L14.7239 9.01323C14.5033 8.76827 14.5268 8.39429 14.7766 8.17785C15.0263 7.96147 15.4075 7.98461 15.6281 8.22958L16.3963 9.08278L18.0115 7.07223C18.2177 6.81555 18.597 6.7714 18.8587 6.97375C19.1204 7.17604 19.1653 7.54819 18.9591 7.80487L16.8965 10.3723C16.7858 10.5102 16.6184 10.5955 16.4396 10.5976C16.1237 10.6013 15.9706 10.3978 15.9706 10.3978ZM25.6478 8.21626H20.5725C20.2393 8.21626 19.9692 8.48123 19.9692 8.8081C19.9692 9.13497 20.2393 9.39994 20.5725 9.39994H25.6478C25.9809 9.39994 26.251 9.13497 26.251 8.8081C26.251 8.48123 25.9809 8.21626 25.6478 8.21626ZM16.8965 15.3438L18.9591 12.7763C19.1652 12.5197 19.1204 12.1475 18.8587 11.9452C18.597 11.7428 18.2177 11.787 18.0115 12.0437L16.3963 14.0542L15.6281 13.201C15.4075 12.9561 15.0263 12.9329 14.7766 13.1493C14.5269 13.3657 14.5033 13.7397 14.7239 13.9847L15.9706 15.3693C16.0853 15.4967 16.25 15.5693 16.4227 15.5693C16.4227 15.5693 16.711 15.5747 16.8965 15.3438ZM25.6478 13.1019H20.5725C20.2393 13.1019 19.9692 13.3669 19.9692 13.6937C19.9692 14.0206 20.2393 14.2856 20.5725 14.2856H25.6478C25.9809 14.2856 26.251 14.0206 26.251 13.6937C26.251 13.3669 25.9809 13.1019 25.6478 13.1019ZM16.8965 20.1969L18.9591 17.6294C19.1652 17.3727 19.1204 17.0006 18.8587 16.7983C18.597 16.5959 18.2177 16.64 18.0115 16.8968L16.3963 18.9073L15.6281 18.0541C15.4075 17.8092 15.0263 17.786 14.7766 18.0024C14.5269 18.2188 14.5033 18.5928 14.7239 18.8378L15.9706 20.2224C16.0853 20.3498 16.25 20.4224 16.4227 20.4224C16.4227 20.4224 16.6995 20.4422 16.8965 20.1969ZM25.6478 17.955H20.5725C20.2393 17.955 19.9692 18.22 19.9692 18.5468C19.9692 18.8737 20.2393 19.1387 20.5725 19.1387H25.6478C25.9809 19.1387 26.251 18.8737 26.251 18.5468C26.251 18.22 25.9809 17.955 25.6478 17.955ZM16.8965 25.05L18.9591 22.4825C19.1652 22.2258 19.1204 21.8537 18.8587 21.6514C18.597 21.449 18.2177 21.4931 18.0115 21.7499L16.3963 23.7604L15.6281 22.9072C15.4075 22.6623 15.0263 22.6391 14.7766 22.8555C14.5269 23.0719 14.5033 23.4459 14.7239 23.6909L15.9706 25.0755C16.0853 25.2029 16.25 25.2755 16.4227 25.2755C16.4227 25.2755 16.7013 25.293 16.8965 25.05ZM25.6478 22.8081H20.5725C20.2393 22.8081 19.9692 23.0731 19.9692 23.3999C19.9692 23.7268 20.2393 23.9918 20.5725 23.9918H25.6478C25.9809 23.9918 26.251 23.7268 26.251 23.3999C26.251 23.0731 25.9809 22.8081 25.6478 22.8081ZM28.6635 6.2288V25.9344C28.6635 27.1093 27.6894 28.0651 26.4919 28.0651H9.45316C8.25568 28.0651 7.28152 27.1093 7.28152 25.9344V24.2573H6.26507C5.40027 24.2573 4.69666 23.5669 4.69666 22.7185V22.085C4.69666 21.2365 5.40027 20.5462 6.26507 20.5462H7.28158V17.9371H6.26507C5.40027 17.9371 4.69666 17.2468 4.69666 16.3983V15.7649C4.69666 14.9164 5.40027 14.2261 6.26507 14.2261H7.28158V11.617H6.26507C5.40027 11.617 4.69666 10.9267 4.69666 10.0783V9.44474C4.69666 8.59628 5.40027 7.90596 6.26507 7.90596H7.28164V6.2288C7.28164 5.05394 8.2558 4.09818 9.45328 4.09818H22.037C22.3702 4.09818 22.6402 4.36314 22.6402 4.69002C22.6402 5.01689 22.3702 5.28186 22.037 5.28186H12.9885V22.0865C12.9885 22.4134 12.7185 22.6784 12.3853 22.6784C12.0521 22.6784 11.7821 22.4134 11.7821 22.0865V5.28186H9.45328C8.92111 5.28186 8.48811 5.70668 8.48811 6.2288V7.90596H9.48284C10.3476 7.90596 11.0513 8.59622 11.0513 9.44474V10.0783C11.0513 10.4883 10.8878 10.8744 10.5911 11.1656C10.2944 11.4567 9.90076 11.6171 9.4829 11.6171H8.48811V14.2262H9.48296C10.3478 14.2262 11.0514 14.9165 11.0514 15.765V16.3984C11.0514 17.2469 10.3478 17.9372 9.48296 17.9372H8.48811V20.5463H9.48296C10.3478 20.5463 11.0514 21.2366 11.0514 22.085V22.7185C11.0514 23.567 10.3478 24.2573 9.48296 24.2573H8.48811V25.9345C8.48811 26.4566 8.92111 26.8814 9.45328 26.8814H11.7821V24.5427C11.7821 24.2158 12.0522 23.9508 12.3854 23.9508C12.7185 23.9508 12.9886 24.2158 12.9886 24.5427V26.8814H26.492C27.0242 26.8814 27.4572 26.4566 27.4572 25.9345V6.2288C27.4572 5.70668 27.0242 5.28186 26.492 5.28186H24.5396C24.2065 5.28186 23.9364 5.01689 23.9364 4.69002C23.9364 4.36314 24.2065 4.09818 24.5396 4.09818H26.4919C27.6894 4.09818 28.6635 5.054 28.6635 6.2288ZM9.84478 10.0783V9.44474C9.84478 9.25228 9.67901 9.08964 9.48284 9.08964H6.26507C6.06889 9.08964 5.90312 9.25228 5.90312 9.44474V10.0783C5.90312 10.2707 6.06889 10.4334 6.26507 10.4334H9.4829C9.82608 10.4207 9.84478 10.0783 9.84478 10.0783ZM6.26507 16.7534H9.4829C9.67907 16.7534 9.84484 16.5908 9.84484 16.3983V15.7649C9.84484 15.5724 9.67907 15.4098 9.4829 15.4098H6.26507C6.06889 15.4098 5.90312 15.5724 5.90312 15.7649V16.3983C5.90312 16.5909 6.06883 16.7534 6.26507 16.7534ZM6.26507 23.0736H9.4829C9.67907 23.0736 9.84484 22.911 9.84484 22.7185V22.085C9.84484 21.8925 9.67907 21.7299 9.4829 21.7299H6.26507C6.06889 21.7299 5.90312 21.8925 5.90312 22.085V22.7185C5.90312 22.911 6.06883 23.0736 6.26507 23.0736Z" fill="#407BFF"/>
</svg>
