<svg width="11" height="11" viewBox="0 0 11 11" fill="none" xmlns="http://www.w3.org/2000/svg">
<path fill-rule="evenodd" clip-rule="evenodd" d="M1.75 4.8125C1.75 2.8795 3.317 1.3125 5.25 1.3125C7.183 1.3125 8.75 2.8795 8.75 4.8125C8.75 5.75551 8.37706 6.61142 7.77061 7.24078C7.75353 7.25392 7.73711 7.26831 7.72146 7.28396C7.70581 7.29961 7.69142 7.31603 7.67828 7.33311C7.04892 7.93956 6.19301 8.3125 5.25 8.3125C3.317 8.3125 1.75 6.7455 1.75 4.8125ZM8.05884 8.32845C7.28901 8.94426 6.31251 9.3125 5.25 9.3125C2.76472 9.3125 0.75 7.29778 0.75 4.8125C0.75 2.32722 2.76472 0.3125 5.25 0.3125C7.73528 0.3125 9.75 2.32722 9.75 4.8125C9.75 5.87501 9.38176 6.85151 8.76595 7.62134L10.6036 9.45896C10.7988 9.65422 10.7988 9.9708 10.6036 10.1661C10.4083 10.3613 10.0917 10.3613 9.89646 10.1661L8.05884 8.32845Z" fill="#FEFEFE"/>
</svg>
