<svg width="19" height="18" viewBox="0 0 19 18" fill="none" xmlns="http://www.w3.org/2000/svg">
<path d="M12.3936 11.0897C12.3936 11.2776 12.4726 11.4577 12.6132 11.5906C12.7539 11.7234 12.9446 11.798 13.1436 11.798C13.3425 11.798 13.5332 11.7234 13.6739 11.5906C13.8145 11.4577 13.8936 11.2776 13.8936 11.0897C13.8936 10.9018 13.8145 10.7217 13.6739 10.5888C13.5332 10.456 13.3425 10.3814 13.1436 10.3814C12.9446 10.3814 12.7539 10.456 12.6132 10.5888C12.4726 10.7217 12.3936 10.9018 12.3936 11.0897Z" stroke="#C2C1C1" stroke-linecap="round" stroke-linejoin="round"/>
<path d="M6.01855 5.06886C6.01855 4.69314 6.17659 4.3328 6.45789 4.06713C6.7392 3.80145 7.12073 3.65219 7.51855 3.65219C7.91638 3.65219 8.29791 3.80145 8.57921 4.06713C8.86052 4.3328 9.01855 4.69314 9.01855 5.06886V11.4439C9.01855 12.0074 9.25561 12.5479 9.67756 12.9465C10.0995 13.345 10.6718 13.5689 11.2686 13.5689C11.8653 13.5689 12.4376 13.345 12.8595 12.9465C13.2815 12.5479 13.5186 12.0074 13.5186 11.4439V11.0897M6.76855 7.9022H11.2686" stroke="#C2C1C1" stroke-linecap="round" stroke-linejoin="round"/>
</svg>
